<svg width="18" height="19" viewBox="0 0 18 19" fill="none" xmlns="http://www.w3.org/2000/svg">
<path d="M17.64 5.43996C18 6.82596 18 9.75996 18 9.75996C18 9.75996 18 12.694 17.64 14.08C17.5398 14.4703 17.3366 14.8266 17.0516 15.1116C16.7667 15.3966 16.4104 15.5998 16.02 15.7C14.634 16.06 9 16.06 9 16.06C9 16.06 3.366 16.06 1.98 15.7C1.58964 15.5998 1.23335 15.3966 0.948371 15.1116C0.663395 14.8266 0.460192 14.4703 0.36 14.08C0 12.694 0 9.75996 0 9.75996C0 9.75996 0 6.82596 0.36 5.43996C0.576 4.64796 1.188 4.03596 1.98 3.81996C3.366 3.45996 9 3.45996 9 3.45996C9 3.45996 14.634 3.45996 16.02 3.81996C16.812 4.03596 17.424 4.64796 17.64 5.43996ZM7.2 12.46L11.88 9.75996L7.2 7.05996V12.46Z" fill="white"/>
</svg>
