<svg width="44" height="45" viewBox="0 0 44 45" fill="none" xmlns="http://www.w3.org/2000/svg">
<path fill-rule="evenodd" clip-rule="evenodd" d="M17.325 13.5417H13.849L13.002 26.3017C12.9507 27.0539 13.0546 27.8086 13.3073 28.5189C13.56 29.2293 13.956 29.8801 14.4707 30.4309C14.9855 30.9818 15.608 31.4209 16.2996 31.7211C16.9911 32.0212 17.7371 32.176 18.491 32.1757H26.609C27.3619 32.1759 28.1069 32.0214 28.7977 31.7219C29.4885 31.4224 30.1104 30.9843 30.625 30.4347C31.1396 29.885 31.5359 29.2356 31.7892 28.5266C32.0426 27.8175 32.1477 27.064 32.098 26.3127L31.24 13.5417H17.325ZM17.325 14.6417H14.883L14.102 26.3787C14.0613 26.9801 14.1446 27.5835 14.3467 28.1513C14.5489 28.7192 14.8655 29.2394 15.2771 29.6798C15.6886 30.1202 16.1862 30.4714 16.7391 30.7115C17.2919 30.9516 17.8882 31.0756 18.491 31.0757H26.609C27.2127 31.0771 27.8102 30.9543 28.3643 30.7148C28.9185 30.4753 29.4174 30.1244 29.8302 29.6838C30.2429 29.2433 30.5605 28.7225 30.7633 28.1539C30.9661 27.5853 31.0497 26.9811 31.009 26.3787L30.217 14.6417H27.775V15.3347C27.775 16.0209 27.6398 16.7003 27.3773 17.3343C27.1147 17.9682 26.7298 18.5442 26.2446 19.0294C25.7594 19.5146 25.1834 19.8994 24.5495 20.162C23.9156 20.4246 23.2361 20.5597 22.55 20.5597C21.8638 20.5597 21.1844 20.4246 20.5505 20.162C19.9165 19.8994 19.3405 19.5146 18.8554 19.0294C18.3702 18.5442 17.9853 17.9682 17.7227 17.3343C17.4601 16.7003 17.325 16.0209 17.325 15.3347V14.6417ZM26.675 14.6417H18.425V15.3347C18.425 16.4288 18.8596 17.478 19.6332 18.2516C20.4068 19.0252 21.456 19.4597 22.55 19.4597C23.644 19.4597 24.6932 19.0252 25.4668 18.2516C26.2404 17.478 26.675 16.4288 26.675 15.3347V14.6417Z" fill="white"/>
</svg>
