<svg width="18" height="19" viewBox="0 0 18 19" fill="none" xmlns="http://www.w3.org/2000/svg">
<path d="M8.77 2.33972C11.11 2.33972 11.39 2.34972 12.31 2.38972C13.17 2.42972 13.63 2.56972 13.94 2.68972C14.35 2.85972 14.64 3.03972 14.95 3.34972C15.25 3.64972 15.45 3.94972 15.6 4.34972C15.72 4.66972 15.87 5.12972 15.9 5.98972C15.95 6.90972 15.96 7.18972 15.96 9.52972C15.96 11.8697 15.95 12.1497 15.91 13.0697C15.9055 13.6264 15.804 14.1779 15.61 14.6997C15.44 15.1097 15.26 15.3997 14.95 15.7097C14.65 16.0097 14.35 16.2097 13.94 16.3697C13.63 16.4897 13.17 16.6297 12.31 16.6697C11.39 16.7097 11.11 16.7197 8.77 16.7197C6.43 16.7197 6.15 16.7197 5.22 16.6697C4.66673 16.664 4.11862 16.5625 3.6 16.3697C3.18 16.2097 2.9 16.0197 2.59 15.7097C2.28 15.4097 2.09 15.1097 1.93 14.7097C1.73647 14.1844 1.63499 13.6296 1.63 13.0697C1.59 12.1497 1.58 11.8697 1.58 9.52972C1.58 7.18972 1.58 6.90972 1.63 5.98972C1.67 5.12972 1.81 4.66972 1.93 4.35972C2.09 3.94972 2.28 3.65972 2.59 3.34972C2.89 3.04972 3.19 2.84972 3.59 2.69972C3.91 2.57972 4.37 2.42972 5.22 2.39972C6.15 2.34972 6.42 2.33972 8.77 2.33972ZM8.77 0.759722C6.39 0.759722 6.09 0.769722 5.15 0.809722C4.22 0.849722 3.58 1.00972 3.02 1.20972C2.45 1.43972 1.96 1.74972 1.47 2.22972C1 2.71972 0.7 3.20972 0.46 3.77972C0.24 4.33972 0.09 4.97972 0.06 5.90972C0 6.85972 0 7.15972 0 9.52972C0 11.8997 0.01 12.2097 0.05 13.1397C0.09 14.0797 0.25 14.7097 0.45 15.2697C0.68 15.8497 0.99 16.3397 1.47 16.8297C1.96 17.3097 2.45 17.6097 3.02 17.8397C3.58 18.0597 4.22 18.2097 5.15 18.2397C6.09 18.2897 6.39 18.2997 8.77 18.2997C11.16 18.2997 11.45 18.2897 12.39 18.2497C13.32 18.2097 13.96 18.0497 14.52 17.8397C15.1043 17.6204 15.6334 17.2756 16.07 16.8297C16.56 16.3397 16.86 15.8497 17.08 15.2697C17.3 14.7197 17.45 14.0797 17.49 13.1397C17.53 12.2097 17.54 11.9097 17.54 9.52972C17.54 7.13972 17.54 6.84972 17.49 5.90972C17.4774 5.18228 17.3421 4.46218 17.09 3.77972C16.8677 3.19454 16.5195 2.66538 16.07 2.22972C15.6317 1.78581 15.1031 1.44136 14.52 1.21972C13.8383 0.963421 13.1181 0.824782 12.39 0.809722C11.184 0.761396 9.9769 0.744724 8.77 0.759722Z" fill="white"/>
<path d="M8.80005 4.75967C7.60657 4.75967 6.46198 5.23377 5.61807 6.07769C4.77415 6.9216 4.30005 8.06619 4.30005 9.25967C4.30005 10.4531 4.77415 11.5977 5.61807 12.4416C6.46198 13.2856 7.60657 13.7597 8.80005 13.7597C9.99352 13.7597 11.1381 13.2856 11.982 12.4416C12.8259 11.5977 13.3 10.4531 13.3 9.25967C13.3 8.06619 12.8259 6.9216 11.982 6.07769C11.1381 5.23377 9.99352 4.75967 8.80005 4.75967ZM8.80005 12.1897C8.41593 12.1897 8.03558 12.114 7.6807 11.967C7.32582 11.82 7.00337 11.6046 6.73176 11.333C6.46015 11.0613 6.2447 10.7389 6.0977 10.384C5.95071 10.0291 5.87505 9.64878 5.87505 9.26467C5.87505 8.88055 5.95071 8.5002 6.0977 8.14532C6.2447 7.79044 6.46015 7.46799 6.73176 7.19638C7.00337 6.92477 7.32582 6.70932 7.6807 6.56232C8.03558 6.41533 8.41593 6.33967 8.80005 6.33967C9.57581 6.33967 10.3198 6.64784 10.8683 7.19638C11.4169 7.74492 11.725 8.48891 11.725 9.26467C11.725 10.0404 11.4169 10.7844 10.8683 11.333C10.3198 11.8815 9.57581 12.1897 8.80005 12.1897ZM13.43 5.75967C13.7085 5.75967 13.9756 5.64904 14.1725 5.45213C14.3694 5.25522 14.48 4.98815 14.48 4.70967C14.48 4.43119 14.3694 4.16412 14.1725 3.96721C13.9756 3.77029 13.7085 3.65967 13.43 3.65967C13.1516 3.65967 12.8845 3.77029 12.6876 3.96721C12.4907 4.16412 12.38 4.43119 12.38 4.70967C12.38 4.98815 12.4907 5.25522 12.6876 5.45213C12.8845 5.64904 13.1516 5.75967 13.43 5.75967Z" fill="white"/>
</svg>
