<svg width="44" height="45" viewBox="0 0 44 45" fill="none" xmlns="http://www.w3.org/2000/svg">
<path fill-rule="evenodd" clip-rule="evenodd" d="M17.325 13.48H13.849L13.002 26.24C12.9507 26.9922 13.0546 27.7468 13.3073 28.4572C13.56 29.1675 13.956 29.8183 14.4707 30.3691C14.9855 30.92 15.608 31.3591 16.2996 31.6593C16.9911 31.9594 17.7371 32.1142 18.491 32.114H26.609C27.3619 32.1141 28.1069 31.9597 28.7977 31.6602C29.4885 31.3607 30.1104 30.9225 30.625 30.3729C31.1396 29.8233 31.5359 29.1738 31.7892 28.4648C32.0426 27.7558 32.1477 27.0023 32.098 26.251L31.24 13.48H17.325ZM17.325 14.58H14.883L14.102 26.317C14.0613 26.9184 14.1446 27.5217 14.3467 28.0895C14.5489 28.6574 14.8655 29.1777 15.2771 29.6181C15.6886 30.0585 16.1862 30.4096 16.7391 30.6497C17.2919 30.8899 17.8882 31.0138 18.491 31.014H26.609C27.2127 31.0154 27.8102 30.8925 28.3643 30.653C28.9185 30.4136 29.4174 30.0627 29.8302 29.6221C30.2429 29.1815 30.5605 28.6607 30.7633 28.0921C30.9661 27.5235 31.0497 26.9193 31.009 26.317L30.217 14.58H27.775V15.273C27.775 15.9591 27.6398 16.6386 27.3773 17.2725C27.1147 17.9064 26.7298 18.4824 26.2446 18.9676C25.7594 19.4528 25.1834 19.8377 24.5495 20.1003C23.9156 20.3628 23.2361 20.498 22.55 20.498C21.8638 20.498 21.1844 20.3628 20.5505 20.1003C19.9165 19.8377 19.3405 19.4528 18.8554 18.9676C18.3702 18.4824 17.9853 17.9064 17.7227 17.2725C17.4601 16.6386 17.325 15.9591 17.325 15.273V14.58ZM26.675 14.58H18.425V15.273C18.425 16.367 18.8596 17.4162 19.6332 18.1898C20.4068 18.9634 21.456 19.398 22.55 19.398C23.644 19.398 24.6932 18.9634 25.4668 18.1898C26.2404 17.4162 26.675 16.367 26.675 15.273V14.58Z" fill="white"/>
</svg>
