<svg width="18" height="19" viewBox="0 0 18 19" fill="none" xmlns="http://www.w3.org/2000/svg">
<path d="M17.64 4.83205C18 6.21805 18 9.15205 18 9.15205C18 9.15205 18 12.0861 17.64 13.4721C17.5398 13.8624 17.3366 14.2187 17.0516 14.5037C16.7667 14.7887 16.4104 14.9919 16.02 15.0921C14.634 15.4521 9 15.4521 9 15.4521C9 15.4521 3.366 15.4521 1.98 15.0921C1.58964 14.9919 1.23335 14.7887 0.948371 14.5037C0.663395 14.2187 0.460192 13.8624 0.36 13.4721C0 12.0861 0 9.15205 0 9.15205C0 9.15205 0 6.21805 0.36 4.83205C0.576 4.04005 1.188 3.42805 1.98 3.21205C3.366 2.85205 9 2.85205 9 2.85205C9 2.85205 14.634 2.85205 16.02 3.21205C16.812 3.42805 17.424 4.04005 17.64 4.83205ZM7.2 11.8521L11.88 9.15205L7.2 6.45205V11.8521Z" fill="white"/>
</svg>
