<svg width="18" height="19" viewBox="0 0 18 19" fill="none" xmlns="http://www.w3.org/2000/svg">
<path d="M8.77 1.73181C11.11 1.73181 11.39 1.74181 12.31 1.78181C13.17 1.82181 13.63 1.96181 13.94 2.08181C14.35 2.25181 14.64 2.43181 14.95 2.74181C15.25 3.04181 15.45 3.34181 15.6 3.74181C15.72 4.06181 15.87 4.52181 15.9 5.38181C15.95 6.30181 15.96 6.58181 15.96 8.92181C15.96 11.2618 15.95 11.5418 15.91 12.4618C15.9055 13.0184 15.804 13.57 15.61 14.0918C15.44 14.5018 15.26 14.7918 14.95 15.1018C14.65 15.4018 14.35 15.6018 13.94 15.7618C13.63 15.8818 13.17 16.0218 12.31 16.0618C11.39 16.1018 11.11 16.1118 8.77 16.1118C6.43 16.1118 6.15 16.1118 5.22 16.0618C4.66673 16.0561 4.11862 15.9546 3.6 15.7618C3.18 15.6018 2.9 15.4118 2.59 15.1018C2.28 14.8018 2.09 14.5018 1.93 14.1018C1.73647 13.5765 1.63499 13.0217 1.63 12.4618C1.59 11.5418 1.58 11.2618 1.58 8.92181C1.58 6.58181 1.58 6.30181 1.63 5.38181C1.67 4.52181 1.81 4.06181 1.93 3.75181C2.09 3.34181 2.28 3.05181 2.59 2.74181C2.89 2.44181 3.19 2.24181 3.59 2.09181C3.91 1.97181 4.37 1.82181 5.22 1.79181C6.15 1.74181 6.42 1.73181 8.77 1.73181ZM8.77 0.151811C6.39 0.151811 6.09 0.161811 5.15 0.201811C4.22 0.241811 3.58 0.401811 3.02 0.601811C2.45 0.831811 1.96 1.14181 1.47 1.62181C1 2.11181 0.7 2.60181 0.46 3.17181C0.24 3.73181 0.09 4.37181 0.06 5.30181C0 6.25181 0 6.55181 0 8.92181C0 11.2918 0.01 11.6018 0.05 12.5318C0.09 13.4718 0.25 14.1018 0.45 14.6618C0.68 15.2418 0.99 15.7318 1.47 16.2218C1.96 16.7018 2.45 17.0018 3.02 17.2318C3.58 17.4518 4.22 17.6018 5.15 17.6318C6.09 17.6818 6.39 17.6918 8.77 17.6918C11.16 17.6918 11.45 17.6818 12.39 17.6418C13.32 17.6018 13.96 17.4418 14.52 17.2318C15.1043 17.0125 15.6334 16.6677 16.07 16.2218C16.56 15.7318 16.86 15.2418 17.08 14.6618C17.3 14.1118 17.45 13.4718 17.49 12.5318C17.53 11.6018 17.54 11.3018 17.54 8.92181C17.54 6.53181 17.54 6.24181 17.49 5.30181C17.4774 4.57437 17.3421 3.85427 17.09 3.17181C16.8677 2.58663 16.5195 2.05747 16.07 1.62181C15.6317 1.1779 15.1031 0.833445 14.52 0.611811C13.8383 0.355511 13.1181 0.216872 12.39 0.201811C11.184 0.153486 9.9769 0.136814 8.77 0.151811Z" fill="white"/>
<path d="M8.7998 4.15176C7.60633 4.15176 6.46174 4.62586 5.61782 5.46978C4.77391 6.31369 4.2998 7.45828 4.2998 8.65176C4.2998 9.84523 4.77391 10.9898 5.61782 11.8337C6.46174 12.6777 7.60633 13.1518 8.7998 13.1518C9.99328 13.1518 11.1379 12.6777 11.9818 11.8337C12.8257 10.9898 13.2998 9.84523 13.2998 8.65176C13.2998 7.45828 12.8257 6.31369 11.9818 5.46978C11.1379 4.62586 9.99328 4.15176 8.7998 4.15176ZM8.7998 11.5818C8.41569 11.5818 8.03533 11.5061 7.68046 11.3591C7.32558 11.2121 7.00313 10.9967 6.73152 10.725C6.45991 10.4534 6.24445 10.131 6.09746 9.77611C5.95046 9.42123 5.8748 9.04087 5.8748 8.65676C5.8748 8.27264 5.95046 7.89229 6.09746 7.53741C6.24445 7.18253 6.45991 6.86008 6.73152 6.58847C7.00313 6.31686 7.32558 6.10141 7.68046 5.95441C8.03533 5.80742 8.41569 5.73176 8.7998 5.73176C9.57556 5.73176 10.3195 6.03993 10.8681 6.58847C11.4166 7.13701 11.7248 7.881 11.7248 8.65676C11.7248 9.43252 11.4166 10.1765 10.8681 10.725C10.3195 11.2736 9.57556 11.5818 8.7998 11.5818ZM13.4298 5.15176C13.7083 5.15176 13.9754 5.04113 14.1723 4.84422C14.3692 4.64731 14.4798 4.38024 14.4798 4.10176C14.4798 3.82328 14.3692 3.55621 14.1723 3.3593C13.9754 3.16238 13.7083 3.05176 13.4298 3.05176C13.1513 3.05176 12.8843 3.16238 12.6873 3.3593C12.4904 3.55621 12.3798 3.82328 12.3798 4.10176C12.3798 4.38024 12.4904 4.64731 12.6873 4.84422C12.8843 5.04113 13.1513 5.15176 13.4298 5.15176Z" fill="white"/>
</svg>
